<svg xmlns="http://www.w3.org/2000/svg" width="2509.857" height="291.042" viewBox="0 0 2506.857 391.042">
  <g id="ondas-top" transform="translate(516.958 308.382)">
    <path id="wave_4_" data-name="wave (4)" d="M0,391.042l45.732-46.611C91.465,298.519,182.663,204.25,274.661,167.59c91.065-36.66,182.663-19.2,273.327,37.184,92,55.339,184,149.609,274.661,167.59,91.6,18.679,182.663-37.184,274.661-37.184,91.2,0,182.663,55.863,274.661,55.863,90.8,0,182.663-55.863,273.327-111.726,91.865-55.863,182.663-111.726,229.328-139.658l45.332-27.932V0H0Z" transform="translate(-516.958 -308.382)" fill="rgba(249,211,8,0.45)"/>
    <path id="wave_1_" data-name="wave (1)" d="M0,341.333l55.275-14.267C110.55,313.333,221.1,284,331.65,284.4c110.55-.4,221.1,28.933,331.65,14.267S884.4,228,994.95,227.6c110.55.4,221.1,56.4,331.65,42.667,110.55-14.267,221.1-99.6,331.65-120.933s221.1,21.333,276.375,42.667l55.275,21.333V0H0Z" transform="translate(0 -271.333)" fill="rgba(237,36,45,0.8)"/>
  </g>
</svg>
